<svg xmlns="http://www.w3.org/2000/svg" viewBox="0 0 1200 1200">
    <defs>
        <style>
            .cls-1 {
                fill: #fff;
            }

            .cls-2 {
                fill: #ffad00;
            }
        </style>
    </defs>
    <title>logo heat vision</title>
    <g id="Capa_2" data-name="Capa 2">
        <path
            d="M600,1110A510.14,510.14,0,0,1,401.48,130.08a510.13,510.13,0,0,1,397,939.84A506.92,506.92,0,0,1,600,1110Zm0-1010c-275.7,0-500,224.3-500,500s224.3,500,500,500,500-224.3,500-500S875.7,100,600,100Z" />
        <circle class="cls-1" cx="600" cy="600" r="563" />
        <path
            d="M730.77,405.69c2.63.84,5.24,1.74,7.81,2.73,3,1.15,3.59,1.4,6.49,2.73a150.23,150.23,0,0,1,14.53,7.67q6.9,4.14,13.36,8.95l1.5,1.13c2,1.48-1.06-.87.86.67,1,.78,2,1.56,2.93,2.36,2.13,1.76,4.23,3.57,6.28,5.42,16.83,15.21,29.5,31.64,40.93,51a276.55,276.55,0,0,1,15.42,30.25c.93,2.13,1.41,3.27,2.49,6s2,5.19,3,7.8c2.06,5.6,3.9,11.26,5.41,17a160.36,160.36,0,0,1,5.28,34.65q.42,8.67,0,17.34-.2,4.54-.59,9.09c-.12,1.37-.26,2.75-.41,4.12-.09.83-.18,1.65-.28,2.47,0,.21-.31,2.41-.16,1.3-6.39,47.69-29.09,91.33-62.94,124.71-17.18,16.95-35.47,30.46-56,43.31-10.14,6.36-20.52,12.33-31,18-10.37,5.63-21.15,10.57-31.39,16.42-9.68,5.53-19.19,13-22.63,24.09-1.19,3.84-.93,7.33-.83,11.23,0,.69,0,1.37,0,2.05,0,.33-.18,1.5.06-.05-.16,1-.48,2-.72,3-.42,1.8.75-1.21-.12.38-.28.5-.53,1-.84,1.49-.2.32-.41.62-.63.93,1.13-1.59-.35.27-.67.57s-.55.49-.83.74c1.37-1.23,0-.07-.3.15s-3,1.46-1.28.79a21.78,21.78,0,0,1-2.84.9c-.61.14-1.21.25-1.82.36,1.84-.31-.46,0-.86,0-1.24,0-2.45,0-3.68-.08-.27,0-1.46-.19-.08,0a16.72,16.72,0,0,1-1.74-.34c-.39-.1-.81-.31-1.21-.38-.81-.14,1.33,1,.25,0a8.37,8.37,0,0,0-1.2-.76c1.48.76.58.52.09,0-.3-.35-.63-.74-1-1.07,1.24,1.25.52.78.32.34-.42-.89-1-1.77-1.46-2.66.87,1.69-.19-.57-.41-1.23-.36-1.08-.66-2.18-.92-3.29a133.83,133.83,0,0,1-2.21-13.36,90,90,0,0,0-2.24-12.2c-2.26-8.14-14.69-6.52-14.73,2a150.22,150.22,0,0,1-.93,16.7c0,.45-.11.9-.17,1.35,0-.11.18-1.21,0-.34s-.24,1.52-.38,2.27c-.25,1.4-.55,2.8-.93,4.17-.18.62-.38,1.22-.58,1.83-.5,1.62.5-.68-.08.25-.23.36-.45.76-.64,1.13-.55,1.07,0,0,.19-.19-.25.3-.5.59-.77.88-.5.54-1,1-1.57,1.52-.23.22-.49.43-.73.64.23-.2,1.13-.77-.06,0a46.12,46.12,0,0,1-4.06,2.41c-.27.15-1.33.51,0,0-.3.11-.6.23-.91.32-.69.2-1.44.33-2.11.56,1.1-.38.53-.12-.31,0-1.23.15,0,.06.36.14-.33-.08-.67-.18-1-.25.15,0,1.62.7.4.12.4.19.8,1,.4.27a13.34,13.34,0,0,1-1-1.42,16.31,16.31,0,0,1-1.64-3.86,32.1,32.1,0,0,1-1-4.33q-.18-1-.33-2c.2,1.37-.13-1.16-.17-1.6-.83-7.77-.72-16.13-3.44-23.53a7.54,7.54,0,0,0-14.73,2c-.08.94-.16,1.87-.26,2.81,0,.24-.36,3-.19,1.73q-.48,3.56-1.2,7.07a80.47,80.47,0,0,1-3.68,12.93c-.55,1.43-.23.51-.09.22-.2.42-.39.85-.6,1.27q-.66,1.32-1.44,2.58c-.13.2-1.74,2.37-1.07,1.56a28.6,28.6,0,0,1-2.62,2.77c-.38.34-.76.68-1.15,1,.81-.66-.17.1-.3.19-.84.54-1.7,1-2.57,1.53-1.21.69-.59.29-.24.15-.45.18-.92.34-1.39.48s-.94.24-1.41.37c-1.77.52.93.13-.91.14-.6,0-3.26-.18-1.43.12-.59-.1-1.15-.26-1.73-.4a3.06,3.06,0,0,1-.83-.29c.24.28,1.4.8.6.22-.51-.37-1.48-.61-1.84-1.16,0,0,1.34,1.29.48.33-.19-.22-.45-.42-.65-.63-.44-.44-.83-.92-1.24-1.38,1.09,1.2.2.25-.25-.44s-.89-1.44-1.28-2.19-.62-1.27-.93-1.9c-.18-.36-.47-1.3.11.29-.13-.35-.27-.69-.4-1-.58-1.53-1.08-3.09-1.52-4.66a86.87,86.87,0,0,1-2.13-10.11c-.08-.49-.42-3.14-.21-1.36-.12-1-.24-2-.35-3-.2-1.87-.36-3.75-.49-5.62-.24-3.41-.38-6.82-.45-10.23a7.5,7.5,0,0,0-6.5-7.36c-3.49-.42-7.46,1.66-8.23,5.37-1.57,7.47-2.19,15.1-3.6,22.6a67,67,0,0,1-2.78,10.72c-.16.43-.32.86-.5,1.29.13-.31.61-1.18,0,0a7.22,7.22,0,0,0-1,1.91c-.06.58.92-.62.24-.37-.17.06-.48.45-.61.58-.89.92-.19.17.07,0-.45.32-.92.63-1.39.93-.68.43-1.39.83-2.1,1.2-.33.17-2.74,1.2-1.28.65-.66.25-1.32.49-2,.67-.34.09-.69.14-1,.25-.78.26,1.61-.23.1-.1-.59,0-1.06-.37.25.08-.28-.1-.57-.12-.85-.22s-1.39-.53-.46-.12-.2-.13-.41-.27c-.49-.31-1.79-1.28-.66-.34a22.46,22.46,0,0,1-1.95-1.83c-.47-.49-.91-1-1.35-1.54,1,1.23-.16-.25-.48-.72a35.36,35.36,0,0,1-1.92-3.24l-.53-1.11c-.25-.54.3.69.27.62-.17-.53-.4-1-.58-1.57a58,58,0,0,1-1.82-6.56c-2.09-9.63-2.19-19.91-4-30.21-1.27-7.39-12.85-6.91-14.47,0-1.71,7.35-2.2,14.94-3.11,22.41l-.18,1.51c0-.34.18-1.28,0,.25-.13.87-.26,1.73-.4,2.6-.32,1.93-.69,3.85-1.15,5.75-.39,1.58-.84,3.15-1.38,4.69-.15.43-.95,2.26-.36,1-.41.87-.83,1.73-1.32,2.57-.35.59-1.37,1.88-.31.66-.45.51-.92,1-1.4,1.47-.17.15-1.18.94-.44.39s-.19.11-.28.15c-.37.2-.78.44-1.14.67-1.14.69.38-.06-.39.18-.39.12-2.42.6-1.09.42-.5.07-1,0-1.47.08-.18,0-1.46-.08-.28.07a13.7,13.7,0,0,1-2.25-.57c.5.2-.85-.43-.71-.37-.95-.68-1.06-.66-.35.06.53.69.61.74.24.13-.65-2-2.21-4-3.21-5.91s-1.86-3.55-2.74-5.34c-.81-1.64-1.58-3.29-2.33-4.95,0-.07-.49-1.13-.17-.38s-.21-.51-.28-.69c-.37-.93-.73-1.87-1.07-2.82a72.67,72.67,0,0,1-2.93-10.65c-.21-1-.39-2.1-.56-3.16-.05-.36-.11-.73-.16-1.09-.11-.77.07.71-.08-.64-.27-2.48-.5-5-.67-7.45-.26-3.71-2.66-6.91-6.51-7.37-3.46-.41-7.48,1.66-8.23,5.38-1.49,7.41-1.45,14.8-1.61,22.32,0,1.29-.07,2.58-.16,3.87-.05.75-.11,1.5-.19,2.25.18-1.55-.16.82-.18.93a25.31,25.31,0,0,1-1.18,4.19c.53-1.37-.42.8-.46.88-.24.44-.49.87-.76,1.29-.66,1-.56.86.32-.33.1.29-1.89,1.86-2.12,2.06l-.92.77c-1.55,1.33,1.24-.82-.48.37-1,.71-2,1.44-3.13,2.07-.48.28-1,.53-1.46.8-.77.35-.6.29.5-.21a4.76,4.76,0,0,1-.74.2l.91-.16c-.49,0-1,.05-1.48.06-.69,0-1.38,0-2.06,0-.39,0-2.36-.39-.49,0-.46-.1-.93-.23-1.4-.31s-1.61-.67,0,.12c-.47-.23-.91-.49-1.36-.74-1.38-.75.89,1.13-.08-.12a10.41,10.41,0,0,1-.71-.78c.61.8.68.86.21.17-.26-.54-.59-1-.85-1.58.81,1.62-.2-.62-.26-.79q-.81-2.31-1.51-4.66c-.94-3.15-1.74-6.35-2.43-9.56a144.35,144.35,0,0,1-2.78-18.76c-1.3-14.1-1.36-28.28-1.6-42.43-.23-13.76-.62-27.54-2.42-41.2a150.28,150.28,0,0,0-11.55-41.3c-5.7-13-12.92-25.6-17.59-38.53-5.16-14.28-6.76-28.5-6.08-43.65.66-14.75,3.37-29,6.74-43.51a387.29,387.29,0,0,1,10.91-38.23c8.47-24.67,19.78-48.4,35.28-70.18a195.94,195.94,0,0,1,56.72-53.07q8.64-5.26,17.74-9.69a188.39,188.39,0,0,1,17.61-7.55A241.95,241.95,0,0,1,592.12,377a294.4,294.4,0,0,1,46.25,2.52,351.33,351.33,0,0,1,43.55,8.85q11,3,21.84,6.54c3.61,1.19,7.2,2.44,10.77,3.72,1.79.65,3.57,1.3,5.34,2a12.13,12.13,0,0,1,1.78.67c0-.12-1.41-.69-.45-.19,2.56,1.34,5.19,2.56,7.78,3.84,3.63,1.79,8.12,1,10.26-2.69,1.94-3.31,1-8.46-2.69-10.26-2.65-1.31-5.29-2.68-8-3.94-6.64-3.1-13.88-5.28-20.83-7.58a380.4,380.4,0,0,0-46.35-12.23c-30.81-6-62.56-8.19-93.79-4.48-29,3.43-57.23,11.39-83.31,24.57a206.45,206.45,0,0,0-65.95,52.48c-18,21.79-31.63,46.55-42.06,72.76A356.32,356.32,0,0,0,354,598.27c-2.11,16.09-2.34,32.38.81,48.36,3,15.32,10,29.44,16.76,43.38,6.32,13,11.82,25.29,14.72,39.63a152.86,152.86,0,0,1,2.67,19.66c.58,7.17.87,14.36,1,21.55.72,28.65-.64,58.55,8.5,86.14,2,6,4.85,11.85,10.95,14.55s13.49,3,19.4.1a34.3,34.3,0,0,0,13-10.8c4-5.88,5-13.2,5.16-20.13.1-3.24.05-6.48.14-9.73a55.57,55.57,0,0,1,1-9.78l-14.73-2c.6,8.8,1.72,17.66,4.6,26a110.32,110.32,0,0,0,5.2,12.34,119.7,119.7,0,0,0,6.67,12.69c3.29,5.09,10.18,7.68,16.08,7.69a22.82,22.82,0,0,0,14.48-5.49c6.52-5.37,9.11-14.45,10.53-22.45.9-5.11,1.45-10.29,2-15.45l.42-3.67c.06-.48.12-1,.17-1.44a3.46,3.46,0,0,1,.11-.82c.33-2.18.7-4.35,1.2-6.49H480.33c.73,4.24,1.14,8.91,1.65,13.9a146.32,146.32,0,0,0,2.32,16.3c1.67,7.72,4.78,15,10.26,20.75a22.23,22.23,0,0,0,10.95,6.63c4.87,1.06,9.22-.17,13.64-2.16,4.07-1.83,8.24-4.46,10.76-8.22,2.37-3.53,3.77-7.92,4.83-12,2.44-9.36,2.92-19.08,4.9-28.52l-14.73-2a187.81,187.81,0,0,0,1.89,23.32c1.14,7.68,3,15.51,6.77,22.36,4,7.37,10.81,12.57,19.4,12.82,11.23.34,21.58-7.46,26.86-17,5.8-10.42,7.78-23.14,8.74-34.87l-14.74,2a30.64,30.64,0,0,1,1.31,4.77c.17.9.31,1.8.45,2.71-.21-1.43.13,1.17.17,1.6.43,4.09.69,8.2,1.18,12.29,1,8.49,3.19,19.89,11.48,24.36,7.64,4.13,17,.46,23.42-4.37,3.1-2.35,6.1-5.08,7.9-8.59a35.92,35.92,0,0,0,3.16-10.16,138.81,138.81,0,0,0,1.92-23.65l-14.73,2c2.42,8.73,2.4,17.93,4.73,26.68a30.24,30.24,0,0,0,6.67,13.06c3.78,4.06,8.79,5.59,14.14,6.13,10.75,1.09,22.56-3.34,27.51-13.48a29.27,29.27,0,0,0,2.64-14.7c0-.76,0-1.54-.12-2.29,0-.27,0-.55,0-.83,0-.11-.41,1.57,0-.13a32.74,32.74,0,0,1,1-3.25c-.57,1.53.25-.46.35-.65.36-.69.77-1.36,1.2-2a16.32,16.32,0,0,1,1-1.38c-1,1.25.47-.49.57-.59.78-.86,1.6-1.68,2.46-2.47.52-.48,1.07-.93,1.61-1.4,1.72-1.51-1.13.76.75-.6,1.18-.85,2.38-1.68,3.61-2.47,4.76-3,9.84-5.51,14.88-8.07,11.15-5.66,22.2-11.52,33.06-17.74,22.06-12.62,43.35-26.74,62.71-43.26,19.07-16.26,36-35.12,49.17-56.46a231.13,231.13,0,0,0,28.89-70.2,207.32,207.32,0,0,0,3.2-76.34c-3.55-23.93-12.52-46.84-23.45-68.32-20.78-40.84-52.72-79.1-95.32-98.1a159.54,159.54,0,0,0-16.52-6.37c-3.86-1.23-8.18,1.45-9.22,5.24A7.62,7.62,0,0,0,730.77,405.69Z" />
        <path
            d="M446.71,557.81c-18.66,5.59-31.06,23.1-36.26,41.12A67.83,67.83,0,0,0,409,632.58a52,52,0,0,0,13.62,25,42.08,42.08,0,0,0,24.65,12.42,38.13,38.13,0,0,0,26.42-6.32c8.66-6.16,13.46-16.21,16.85-26a53,53,0,0,0,3.2-17.11,63.19,63.19,0,0,0-2.87-17.57c-1.59-5.5-3.45-11-5.48-16.3a73.25,73.25,0,0,0-7.11-14.56c-5.43-8.24-13.81-14.94-23.89-16a23.23,23.23,0,0,0-7.25.44c-1.89.41-1.09,3.31.79,2.9,9.2-2,18.47,2.94,24.42,9.73C479.14,577,482.5,587,485.71,596.6a105.27,105.27,0,0,1,4.44,16.46,44.39,44.39,0,0,1-.34,16.33,73.78,73.78,0,0,1-5.32,15.48,46,46,0,0,1-8,12.47c-6,6.38-14.64,9.73-23.33,10a37.61,37.61,0,0,1-24.43-8.24,47.56,47.56,0,0,1-15.08-21.23c-3.57-10-3.94-20.92-2-31.29C415,589,425,571.09,441.53,563a38.58,38.58,0,0,1,6-2.31c1.85-.55,1.06-3.45-.79-2.89Z" />
        <path
            d="M504.9,674.43a214.07,214.07,0,0,0-18.66,37c-1.84,4.75-3.27,10.82.37,14.39,3.15,3.1,8.68,2.31,12.08-.5s5.21-7.08,6.89-11.16c2.63,5.57-.67,13.7,4.2,17.48,3.6,2.79,9.27.42,11.51-3.54s2-8.81,1.77-13.36c1.62,4,3.34,8.15,6.55,11s8.38,4.07,11.86,1.52a9.75,9.75,0,0,0,3.49-6c1.27-6.09-1.32-12.26-4.05-17.85q-4.33-8.88-9.33-17.4c-2.05-3.49-4.24-7-7.35-9.6-5.53-4.62-11.57-5.83-18.06-2.72" />
        <path
            d="M502.31,672.92A218,218,0,0,0,484.37,708c-2,4.9-4.27,10.74-2.31,16,2.13,5.76,8.45,8,14.05,6,6.79-2.36,9.81-9,12.36-15.15l-5.48.72c-.12-.26.18.52.22.65.09.31.17.63.24,1a11.54,11.54,0,0,1,.26,2c.09,1.54.08,3.08.14,4.61.15,3.32.72,6.73,3.11,9.22,5.45,5.68,14.65,1.67,17.49-4.66,1.94-4.34,1.88-9.07,1.61-13.73l-5.89.8c2.66,6.57,6,13.86,13.59,15.74a11.31,11.31,0,0,0,10.14-2.11c3-2.54,4.24-6.71,4.38-10.52.3-8.14-4.28-15.94-7.93-22.92q-2.83-5.45-5.94-10.75a46.44,46.44,0,0,0-6.53-9.21,22.41,22.41,0,0,0-10.59-6.26,19.19,19.19,0,0,0-12.63,1.66,3,3,0,0,0-1.08,4.1,3.06,3.06,0,0,0,4.1,1.08c5.17-2.41,10.48-1.2,14.74,2.52a28.74,28.74,0,0,1,5.49,6.92c1.79,2.93,3.47,5.92,5.11,8.93s3.31,6.24,4.88,9.41a50.19,50.19,0,0,1,3.7,9.1,14.9,14.9,0,0,1,0,8.82,5.88,5.88,0,0,1-2,2.88,4.09,4.09,0,0,1-2.45.75,8.9,8.9,0,0,1-6.88-3.47c-2-2.38-3.22-5.41-4.38-8.26a3,3,0,0,0-3.29-2.15,3,3,0,0,0-2.6,2.94c.22,3.86.64,8.34-1.36,11.84a6.51,6.51,0,0,1-3,2.72,4.49,4.49,0,0,1-3.35.39,3.76,3.76,0,0,1-1.88-1.89,10.91,10.91,0,0,1-.66-4.23c-.13-3.76-.09-7.42-1.67-10.93a3,3,0,0,0-3-1.43,3.09,3.09,0,0,0-2.49,2.15c-1.67,4.05-3.69,8.91-7.74,10.78a6.89,6.89,0,0,1-5,.36,3.77,3.77,0,0,1-1.73-1.31,5.08,5.08,0,0,1-.83-2.15,13.28,13.28,0,0,1,0-2.69,19.25,19.25,0,0,1,.65-3,70.06,70.06,0,0,1,2.77-7.4c2.13-5.15,4.5-10.21,7-15.16q4.42-8.61,9.6-16.79c2.07-3.27-3.12-6.29-5.18-3Z" />
        <ellipse cx="439.03" cy="604.31" rx="42.41" ry="63.32" />
        <path class="cls-2"
            d="M430.58,401.32c36.78-11.76,74.36-9.87,112.1-1.34s73.37,23.89,108.35,39.9c88.81,40.67,178.18,88.55,236.23,164.67,3.62,4.74,7.18,9.76,8.33,15.52,1.35,6.83-.86,13.82-3.32,20.36a253.23,253.23,0,0,1-19.47,40.45c-4.81,8.09-11.41,16.75-21.08,17.63-11.3,1-20-8.92-26.6-17.75-42.65-57-91.56-111.92-155.5-146.08C593.69,494.12,504.17,486.56,418.38,473c-7.78-1.23-15.79-2.6-22.4-6.72s-11.48-11.73-9.77-19.1c.93-4,3.64-7.43,6.39-10.6,10-11.51,19.44-22.6,32-31.49ZM882.31,597.37c4.58-8.16,4.86-17.84,4.73-27.09-.37-25.55-3.09-51.38-12.26-75.37C859.05,453.7,825,420.5,785.5,398.27s-84.33-34.38-129.32-42.7c-36.82-6.8-74.66-11.21-111.79-6.16s-73.78,20.39-98.13,47.7" />
        <path
            d="M743.39,638a29.53,29.53,0,0,1,.7,3.49l-.26-2a31.4,31.4,0,0,1,0,7.75l.26-2a38.16,38.16,0,0,1-2.74,9.82l.76-1.79A54.46,54.46,0,0,1,736,663.76c-.71,1,.38-.47.43-.54-.16.22-.34.43-.51.65s-.6.74-.91,1.1c-.65.78-1.33,1.55-2,2.3-1.39,1.5-2.85,2.93-4.37,4.31s-3.24,2.83-4.92,4.18l-1.34,1.07-.51.4.49-.38c-.85.65-1.71,1.31-2.58,1.95-3.45,2.58-7,5.09-10.41,7.68-7.18,5.39-14.17,11-19.78,18.1a86.41,86.41,0,0,0-13.49,23.83,80.8,80.8,0,0,0-5,28.76c0,3.92,3.42,7.68,7.5,7.5a7.62,7.62,0,0,0,7.5-7.5,74.86,74.86,0,0,1,.64-10.58l-.27,2a76.62,76.62,0,0,1,5.26-19.22l-.76,1.79A77.16,77.16,0,0,1,696.2,721q1.54-2.52,3.29-4.91l.73-1c.55-.75-1,1.28-.43.55l.38-.48c.63-.8,1.28-1.59,2-2.36a82.08,82.08,0,0,1,8.4-8.28c1.52-1.3,3.08-2.57,4.66-3.8,1.41-1.11-1,.76,0,0l1.2-.91,2.59-1.93c13.39-9.89,27.68-19.6,35.16-35,4.38-9,6.28-19,3.72-28.85-1-3.79-5.41-6.47-9.23-5.24a7.66,7.66,0,0,0-5.24,9.23Z" />
        <path class="cls-2"
            d="M876.66,608.49l-2.49-51.37S513.58,374.33,512.33,374.33s-91.84,33.87-91.84,33.87l66.89,53.35,128.51,38.23L773.1,575Z" />
        <path
            d="M432.57,408.55c5.22-1.66,10.48-3.16,15.82-4.34,2.14-.47,4.28-.89,6.44-1.26l2-.31c.16,0,1.77-.26,1-.15-1,.14,1.57-.18,1.34-.16l2-.2a185,185,0,0,1,30.05,0c8.72.57,17.45,1.08,26.16,1.85,2.28.2,4.57.42,6.85.66l3.56.4,1.55.19,1.06.14c4.12.58,8.2,1.32,12.26,2.26,42.9,10,83.12,28.45,122.78,47.11,36.15,17,71.8,35.29,105.53,56.76,33.12,21.09,63.47,44.61,90.31,73.65q9.83,10.64,18.75,22.06c.84,1.08,2.43,3.16,3.64,4.9.74,1,1.44,2.12,2.09,3.22.29.49.57,1,.83,1.48.09.16,1,2.07.67,1.25,1.91,4.4,1.52,8.59.3,13.08-2.85,10.57-7.69,20.67-12.6,30.41q-3.78,7.49-8,14.71c-1.17,2-2.37,3.93-3.69,5.8-.29.41-.58.82-.88,1.22.2-.26.75-.89-.2.26-.8,1-1.61,1.89-2.48,2.77-.69.7-1.41,1.35-2.15,2-1.14,1-.46.33-.2.16-.49.33-1,.66-1.5,1s-.83.46-1.25.68c-1.05.58,1-.31-.16.11-.56.2-1.13.39-1.7.54-.18.05-2,.4-1.16.28,1-.15-1.34,0-1.22,0-.49,0-1,0-1.46-.05,1.4.07-1.15-.25-1.53-.35s-2.73-1.09-1.54-.51a27.17,27.17,0,0,1-3.15-1.79c-.41-.27-.82-.56-1.22-.85.95.7-.32-.27-.53-.45-.87-.74-1.71-1.52-2.52-2.32a66.3,66.3,0,0,1-4.62-5.15c-.27-.33-1.81-2.28-1.17-1.45-.65-.84-1.28-1.69-1.91-2.54q-2.42-3.21-4.84-6.4c-12.31-16.17-25-32-38.49-47.26-26.68-30.15-56.43-57.88-90.29-79.84-35.13-22.79-74.49-37.93-114.94-48.27-41.24-10.54-83.47-16.48-125.53-22.62-10.57-1.54-21.13-3.09-31.68-4.73-5.09-.79-10.22-1.49-15.23-2.75a58.76,58.76,0,0,1-6-1.88,29.49,29.49,0,0,1-3.06-1.58,12.2,12.2,0,0,1-2.36-1.61c-.77-.71-1.51-1.43-2.21-2.21-1.6-1.77.28.5-.48-.64-.29-.42-.56-.85-.82-1.3s-.49-.88-.7-1.34c-.51-1.13.25,1.43-.19-.65-.11-.48-.26-1-.36-1.44.28,1.26,0-.59,0-.93s.09-1.48-.08-.22a15.47,15.47,0,0,1,.36-1.53,5.35,5.35,0,0,1,.9-2,29,29,0,0,1,3.93-5.2c6.8-7.87,13.64-15.77,21.38-22.74a104.39,104.39,0,0,1,14.51-10.72,7.66,7.66,0,0,0,2.69-10.26c-2-3.4-6.84-4.88-10.26-2.69a131.41,131.41,0,0,0-17.88,13.36c-7.82,7.09-14.75,15.12-21.63,23.12-3.69,4.29-7.34,8.95-8.46,14.64a23.38,23.38,0,0,0,3.25,16.8c6.2,9.92,17.19,14.38,28.24,16.48,21.5,4.09,43.37,6.59,65,9.8s43.19,6.57,64.63,10.77c42.1,8.24,84.06,19.73,121.93,39.28,37,19.11,68.55,44.84,97.43,74.73,14.28,14.79,27.71,30.38,40.55,46.43,6.49,8.12,12,15.29,18.25,23.62S831,700.35,840.9,704.32c10.21,4.09,21.12.53,28.75-6.87,7.43-7.2,12.38-17.11,17.07-26.19A229.09,229.09,0,0,0,901,638.36c2.07-6.26,3.13-12.79,2-19.35-.9-5.38-3.59-10.39-6.7-14.81-11.77-16.72-26-32-40.73-46.15A462.39,462.39,0,0,0,808,518.64c-33.12-24.1-68.94-44.28-105.55-62.56-18.86-9.41-38-18.35-57.17-27-21.49-9.7-43.23-19-65.61-26.45-10.88-3.64-21.92-6.84-33.1-9.44A210.73,210.73,0,0,0,517.28,389c-9-.8-18.08-1.33-27.13-1.91a176.26,176.26,0,0,0-30.65.21,160.36,160.36,0,0,0-30.91,6.79,7.67,7.67,0,0,0-5.24,9.23C424.39,407.11,428.7,409.78,432.57,408.55Z" />
        <path
            d="M888.79,601.15c5.18-9.51,5.89-20.25,5.75-30.87a304.09,304.09,0,0,0-2-31.79c-2.49-20.88-7.55-41.17-16.87-60.09-16.15-32.81-43.35-59.43-73.86-79-34.48-22.17-74-35.64-113.75-44.83a657.34,657.34,0,0,0-65-11.7c-22-2.8-44.22-4.05-66.32-2.25-38.5,3.15-77.32,15.63-106.43,41.84a122.08,122.08,0,0,0-9.36,9.4c-2.62,2.92-3.1,7.76,0,10.6,2.86,2.63,7.81,3.12,10.61,0a123.76,123.76,0,0,1,9.36-9.39c1.55-1.4,3.15-2.76,4.77-4.09l1.36-1.09c.26-.2,1.46-1.13.42-.33.93-.71,1.86-1.4,2.81-2.09a147.86,147.86,0,0,1,23.07-13.58c1.92-.91,3.87-1.79,5.83-2.63-1.19.51,1.09-.45,1.5-.62,1.33-.54,2.66-1,4-1.56q6.21-2.32,12.57-4.2a196.94,196.94,0,0,1,26.29-5.78l1.77-.26.36-.05.41-.05c1.14-.15,2.27-.29,3.41-.41q4.26-.48,8.53-.81c5.4-.41,10.82-.64,16.24-.72a321.46,321.46,0,0,1,32.55,1.31c5.43.47,10.85,1.07,16.25,1.76,2.42.31,3.78.5,6.53.89s5.39.81,8.08,1.24q15.41,2.46,30.7,5.62a511.19,511.19,0,0,1,59,15.46q7.18,2.4,14.29,5.08,3.36,1.27,6.69,2.61c2.53,1,4,1.64,5.92,2.47A291.83,291.83,0,0,1,781,404.35a245.43,245.43,0,0,1,22.5,14.21c1.71,1.22,3.4,2.45,5.07,3.71l1.39,1.05c1.06.81-1.34-1.06.41.32l2.73,2.16q5.13,4.14,10,8.59a197.94,197.94,0,0,1,18,18.57c1.4,1.65,2.78,3.33,4.12,5l.84,1.08c-.79-1-.07-.09.07.11.75,1,1.5,2,2.24,3,2.46,3.39,4.8,6.88,7,10.44s4.37,7.4,6.33,11.22q1.38,2.72,2.67,5.48c.47,1,.92,2.06,1.38,3.09.11.23.57,1.32,0,.08.26.62.52,1.25.77,1.88a164.75,164.75,0,0,1,8.6,29.18c.94,4.68,1.87,10.52,2.31,14.12.62,5,1.07,10,1.4,15.05a208,208,0,0,1,.29,29.64c-.18,2.41.29-1.39-.11,1-.09.49-.17,1-.26,1.48-.21,1.1-.46,2.19-.76,3.27s-.65,2.14-1,3.19c.39-1,0,.1-.12.27-.33.68-.67,1.35-1,2-1.88,3.45-1,8.33,2.69,10.26,3.5,1.86,8.25,1,10.26-2.69Z" />
        <path
            d="M411.36,472.5l-4.43-2.3c1.22-2.35,30.19-57.64,59.67-78.43l2.88,4.09C441,415.94,411.65,471.94,411.36,472.5Z" />
        <path
            d="M465.93,480.77l-4.6-2c3.46-8.11,34.15-79.5,47.16-86.62l2.4,4.39C502.18,401.34,479.23,449.54,465.93,480.77Z" />
        <rect x="486.5" y="442.24" width="93.67" height="5" transform="translate(-97.68 734.67) rotate(-64.5)" />
        <path
            d="M832.07,688.31l-4.1-2.85c.42-.62,42.62-61.78,44.38-96.35l5,.25C875.51,625.36,833.85,685.75,832.07,688.31Z" />
        <path
            d="M814.84,665.53l-4.44-2.3c.36-.7,36.35-70.51,43.17-95l4.81,1.35C851.43,594.56,816.33,662.64,814.84,665.53Z" />
        <path
            d="M791.78,637.07l-4.51-2.15c10.38-21.9,37.42-81.1,37.78-91.8l5,.17C829.58,557.21,793.33,633.81,791.78,637.07Z" />
        <path
            d="M762.64,605.49,758.29,603c.36-.64,36.06-63.9,37.88-82.14l5,.5C799.22,540.67,764.14,602.85,762.64,605.49Z" />
        <path
            d="M731.33,576.89,727.27,574c11.17-15.49,40.22-58.58,40.49-71.74l5,.1C772.4,519.73,733,574.56,731.33,576.89Z" />
        <path
            d="M549.08,494.69l-4.45-2.28c6.39-12.48,38.6-75,45.59-79.72l2.79,4.14C588.94,419.58,567.34,459,549.08,494.69Z" />
        <rect x="568.68" y="464.54" width="83.07" height="5" transform="translate(-80.65 803.49) rotate(-63.39)" />
        <path d="M699,555l-4.08-2.9c10.91-15.35,39.46-57.68,40.56-69.07l5,.49C739,498.55,700.66,552.69,699,555Z" />
        <rect x="603.54" y="477.3" width="78.78" height="5" transform="translate(-77.12 833.5) rotate(-62.89)" />
        <rect x="642.15" y="494.43" width="77.43" height="5" transform="translate(-54.56 908.84) rotate(-65.38)" />
        <path
            d="M494.75,394.56l-4.15-2.79c1-1.44,24.06-35.41,50.82-44.41l1.59,4.73C517.87,360.56,495,394.22,494.75,394.56Z" />
        <path d="M539,400l-4.31-2.53c1.22-2.07,30.16-50.62,61.05-53.09l.39,5C567.8,351.61,539.27,399.5,539,400Z" />
        <path
            d="M612.56,422.88l-4.69-1.73c.92-2.49,22.85-60.91,52.49-67.14l1,4.89C634.44,364.57,612.78,422.3,612.56,422.88Z" />
        <path d="M849.58,560.67l-5-.57c.1-.84,9.43-83.53.36-110.53l4.74-1.59C859.14,476,850,557.22,849.58,560.67Z" />
        <path
            d="M816.07,532.4l-5-.55c4.35-39.56,9.06-101.74,4.2-110.91l4.42-2.34C826.85,432.07,817.2,522.17,816.07,532.4Z" />
        <path
            d="M658.69,443.18l-4.7-1.71c.06-.18,6.54-17.89,14.46-35.65,14.79-33.15,21.68-38,25.57-38.72l1,4.91c-1.53.29-7.63,3.74-22,35.84C665.17,425.46,658.75,443,658.69,443.18Z" />
        <path
            d="M723.3,474.72l-4.78-1.46c10.08-32.93,25.58-87.37,24.22-93.24l4.87-1.13C749.67,387.8,727.72,460.29,723.3,474.72Z" />
        <path
            d="M762.88,497.6l-4.82-1.34c12.13-43.66,23.49-91.88,21.49-97l4.57-2c.8,1.8,2.69,6-9.14,54.1C769.23,474.71,762.94,497.37,762.88,497.6Z" />
        <path d="M462.42,552.31,102.93,450.25S49.44,637.82,90.75,745.06l370-100.21Z" />
        <polyline class="cls-1" points="575.14 578.95 94.48 514.73 86.84 563.24 574.38 582.35" />
        <path d="M605.08,577.32,95.78,538.81S84.7,782.15,142.33,835.45L614,648.37Z" />
        <ellipse cx="603.9" cy="624.09" rx="42.41" ry="63.32" />
        <path
            d="M600,1129.5A529.64,529.64,0,0,1,393.89,112.12a529.63,529.63,0,0,1,412.22,975.76A526.13,526.13,0,0,1,600,1129.5Zm0-1010c-264.95,0-480.5,215.55-480.5,480.5S335.05,1080.5,600,1080.5,1080.5,865,1080.5,600,865,119.5,600,119.5Z" />
    </g>
</svg>